<svg width="413" height="445" viewBox="0 0 413 445" fill="none" xmlns="http://www.w3.org/2000/svg">
<g filter="url(#filter0_d_337_362)">
<path d="M80.7747 117.288L77.5067 151H60.9947L76.6467 20.28H100.383L116.379 151H99.1787L95.9107 117.288H80.7747ZM88.3427 37.308L81.9787 103.184H94.7067L88.3427 37.308ZM173.8 30.6V73.944L163.48 84.264L173.8 94.584V140.68L163.48 151H125.296V20.28H163.48L173.8 30.6ZM157.288 74.288V37.48L153.848 34.04H141.808V77.728H153.848L157.288 74.288ZM141.808 91.488V136.896H153.848L157.288 133.456V94.928L153.848 91.488H141.808ZM234.821 140.68L224.501 151H195.777L185.457 140.68V30.6L195.777 20.28H224.501L234.821 30.6V140.68ZM205.409 34.384L201.969 37.824V133.456L205.409 136.896H214.869L218.309 133.456V37.824L214.869 34.384H205.409ZM285.162 151H257.47L247.15 140.68V20.28H263.662V133.456L267.102 136.896H275.53L278.97 133.456V20.28H295.482V140.68L285.162 151ZM336.371 34.04V151H319.859V34.04H304.207V20.28H352.023V34.04H336.371ZM172.16 345L159.26 242.488V345H144.296V214.28H168.204L180.416 319.888L192.628 214.28H217.052V345H201.4V242.488L188.5 345H172.16ZM230.169 214.28H270.933V228.384H246.681V271.728H267.837V285.832H246.681V330.896H271.277V345H230.169V214.28Z" fill="#F2F2F2"/>
</g>
<defs>
<filter id="filter0_d_337_362" x="0.99469" y="0.279999" width="411.028" height="444.72" filterUnits="userSpaceOnUse" color-interpolation-filters="sRGB">
<feFlood flood-opacity="0" result="BackgroundImageFix"/>
<feColorMatrix in="SourceAlpha" type="matrix" values="0 0 0 0 0 0 0 0 0 0 0 0 0 0 0 0 0 0 127 0" result="hardAlpha"/>
<feOffset dy="40"/>
<feGaussianBlur stdDeviation="30"/>
<feComposite in2="hardAlpha" operator="out"/>
<feColorMatrix type="matrix" values="0 0 0 0 1 0 0 0 0 1 0 0 0 0 1 0 0 0 0.1 0"/>
<feBlend mode="normal" in2="BackgroundImageFix" result="effect1_dropShadow_337_362"/>
<feBlend mode="normal" in="SourceGraphic" in2="effect1_dropShadow_337_362" result="shape"/>
</filter>
</defs>
</svg>
