<svg width="1177" height="572" viewBox="0 0 1177 572" fill="none" xmlns="http://www.w3.org/2000/svg">
<g filter="url(#filter0_d_182_378)">
<path d="M105.999 355.432L98.399 472H60L96.399 20H151.598L188.797 472H148.798L141.198 355.432H105.999ZM123.598 78.879L108.799 306.663H138.398L123.598 78.879Z" fill="#F6F6F6"/>
<path d="M322.331 55.6842V205.558L298.331 241.242L322.331 276.926V436.316L298.331 472H209.534V20H298.331L322.331 55.6842ZM283.932 206.747V79.4737L275.932 67.579H247.933V218.642H275.932L283.932 206.747ZM247.933 266.221V423.232H275.932L283.932 411.337V278.116L275.932 266.221H247.933Z" fill="#F6F6F6"/>
<path d="M464.236 436.316L440.237 472H373.439L349.439 436.316V55.6842L373.439 20H440.237L464.236 55.6842V436.316ZM395.838 68.7684L387.838 80.6631V411.337L395.838 423.232H417.837L425.837 411.337V80.6631L417.837 68.7684H395.838Z" fill="#F6F6F6"/>
<path d="M581.305 472H516.907L492.907 436.316V20H531.306V411.337L539.306 423.232H558.905L566.905 411.337V20H605.304V436.316L581.305 472Z" fill="#F6F6F6"/>
<path d="M700.392 67.579V472H661.993V67.579H625.594V20H736.791V67.579H700.392Z" fill="#F6F6F6"/>
<path d="M886.503 472L856.504 117.537V472H821.705V20H877.303L905.702 385.168L934.102 20H990.9V472H954.501V117.537L924.502 472H886.503Z" fill="#F6F6F6"/>
<path d="M1021.4 20H1116.2V68.7684H1059.8V218.642H1109V267.411H1059.8V423.232H1117V472H1021.4V20Z" fill="#F6F6F6"/>
</g>
<defs>
<filter id="filter0_d_182_378" x="0" y="0" width="1177" height="572" filterUnits="userSpaceOnUse" color-interpolation-filters="sRGB">
<feFlood flood-opacity="0" result="BackgroundImageFix"/>
<feColorMatrix in="SourceAlpha" type="matrix" values="0 0 0 0 0 0 0 0 0 0 0 0 0 0 0 0 0 0 127 0" result="hardAlpha"/>
<feOffset dy="40"/>
<feGaussianBlur stdDeviation="30"/>
<feComposite in2="hardAlpha" operator="out"/>
<feColorMatrix type="matrix" values="0 0 0 0 0.929199 0 0 0 0 0.929199 0 0 0 0 0.929199 0 0 0 0.1 0"/>
<feBlend mode="normal" in2="BackgroundImageFix" result="effect1_dropShadow_182_378"/>
<feBlend mode="normal" in="SourceGraphic" in2="effect1_dropShadow_182_378" result="shape"/>
</filter>
</defs>
</svg>
