<svg width="390" height="445" viewBox="0 0 390 445" fill="none" xmlns="http://www.w3.org/2000/svg">
<g filter="url(#filter0_d_129_444)">
<path d="M69.7747 117.288L66.5067 151H49.9947L65.6467 20.28H89.3827L105.379 151H88.1787L84.9107 117.288H69.7747ZM77.3427 37.308L70.9787 103.184H83.7067L77.3427 37.308ZM162.8 30.6V73.944L152.48 84.264L162.8 94.584V140.68L152.48 151H114.296V20.28H152.48L162.8 30.6ZM146.288 74.288V37.48L142.848 34.04H130.808V77.728H142.848L146.288 74.288ZM130.808 91.488V136.896H142.848L146.288 133.456V94.928L142.848 91.488H130.808ZM223.821 140.68L213.501 151H184.777L174.457 140.68V30.6L184.777 20.28H213.501L223.821 30.6V140.68ZM194.409 34.384L190.969 37.824V133.456L194.409 136.896H203.869L207.309 133.456V37.824L203.869 34.384H194.409ZM274.162 151H246.47L236.15 140.68V20.28H252.662V133.456L256.102 136.896H264.53L267.97 133.456V20.28H284.482V140.68L274.162 151ZM325.371 34.04V151H308.859V34.04H293.207V20.28H341.023V34.04H325.371ZM161.16 345L148.26 242.488V345H133.296V214.28H157.204L169.416 319.888L181.628 214.28H206.052V345H190.4V242.488L177.5 345H161.16ZM219.169 214.28H259.933V228.384H235.681V271.728H256.837V285.832H235.681V330.896H260.277V345H219.169V214.28Z" fill="#F2F2F2" fill-opacity="0.9" shape-rendering="crispEdges"/>
</g>
<defs>
<filter id="filter0_d_129_444" x="-10.0052" y="0.280029" width="411.028" height="444.72" filterUnits="userSpaceOnUse" color-interpolation-filters="sRGB">
<feFlood flood-opacity="0" result="BackgroundImageFix"/>
<feColorMatrix in="SourceAlpha" type="matrix" values="0 0 0 0 0 0 0 0 0 0 0 0 0 0 0 0 0 0 127 0" result="hardAlpha"/>
<feOffset dy="40"/>
<feGaussianBlur stdDeviation="30"/>
<feComposite in2="hardAlpha" operator="out"/>
<feColorMatrix type="matrix" values="0 0 0 0 1 0 0 0 0 1 0 0 0 0 1 0 0 0 0.1 0"/>
<feBlend mode="normal" in2="BackgroundImageFix" result="effect1_dropShadow_129_444"/>
<feBlend mode="normal" in="SourceGraphic" in2="effect1_dropShadow_129_444" result="shape"/>
</filter>
</defs>
</svg>
