<svg width="1326" height="572" viewBox="0 0 1326 572" fill="none" xmlns="http://www.w3.org/2000/svg">
<g filter="url(#filter0_d_182_377)">
<path d="M60 55.6842L83.9925 20H143.174L167.167 55.6842V157.384H128.779V79.4737L120.781 67.579H106.386L98.3881 79.4737V411.337L106.386 423.232H120.781L128.779 411.337V334.021H167.167V436.316L143.174 472H83.9925L60 436.316V55.6842Z" fill="#F6F6F6"/>
<path d="M224.111 355.432L216.514 472H178.126L214.514 20H269.697L306.886 472H266.898L259.301 355.432H224.111ZM241.706 78.879L226.911 306.663H256.501L241.706 78.879Z" fill="#F6F6F6"/>
<path d="M384.902 79.4737L376.905 67.579H362.909L354.911 79.4737V206.747L362.909 218.642H400.497L424.49 254.326V436.316L400.497 472H339.716L315.724 436.316V341.753H354.112V412.526L362.109 424.421H378.104L386.102 412.526V279.305L378.104 267.411H340.516L316.523 231.726V55.6842L340.516 20H399.298L423.29 55.6842V150.842H384.902V79.4737Z" fill="#F6F6F6"/>
<path d="M447.408 20H542.178V68.7684H485.796V218.642H534.98V267.411H485.796V423.232H542.978V472H447.408V20Z" fill="#F6F6F6"/>
<path d="M693.009 79.4737L685.012 67.579H671.016L663.019 79.4737V206.747L671.016 218.642H708.605L732.597 254.326V436.316L708.605 472H647.823L623.831 436.316V341.753H662.219V412.526L670.217 424.421H686.212L694.209 412.526V279.305L686.212 267.411H648.623L624.631 231.726V55.6842L648.623 20H707.405L731.398 55.6842V150.842H693.009V79.4737Z" fill="#F6F6F6"/>
<path d="M819.133 67.579V472H780.745V67.579H744.356V20H855.521V67.579H819.133Z" fill="#F6F6F6"/>
<path d="M960.248 472H895.868L871.876 436.316V20H910.264V411.337L918.261 423.232H937.855L945.853 411.337V20H984.241V436.316L960.248 472Z" fill="#F6F6F6"/>
<path d="M1124.09 55.6842V436.316L1100.1 472H1010.12V20H1100.1L1124.09 55.6842ZM1085.7 411.337V80.6631L1077.7 68.7684H1048.51V423.232H1077.7L1085.7 411.337Z" fill="#F6F6F6"/>
<path d="M1182.03 472V323.911L1135.64 20H1176.83L1200.82 241.837L1224.81 20H1266L1219.61 323.911V472H1182.03Z" fill="#F6F6F6"/>
</g>
<defs>
<filter id="filter0_d_182_377" x="0" y="0" width="1326" height="572" filterUnits="userSpaceOnUse" color-interpolation-filters="sRGB">
<feFlood flood-opacity="0" result="BackgroundImageFix"/>
<feColorMatrix in="SourceAlpha" type="matrix" values="0 0 0 0 0 0 0 0 0 0 0 0 0 0 0 0 0 0 127 0" result="hardAlpha"/>
<feOffset dy="40"/>
<feGaussianBlur stdDeviation="30"/>
<feComposite in2="hardAlpha" operator="out"/>
<feColorMatrix type="matrix" values="0 0 0 0 0.929199 0 0 0 0 0.929199 0 0 0 0 0.929199 0 0 0 0.1 0"/>
<feBlend mode="normal" in2="BackgroundImageFix" result="effect1_dropShadow_182_377"/>
<feBlend mode="normal" in="SourceGraphic" in2="effect1_dropShadow_182_377" result="shape"/>
</filter>
</defs>
</svg>
