<svg width="134" height="37" viewBox="0 0 134 37" fill="none" xmlns="http://www.w3.org/2000/svg">
<path d="M0 0V10.2121H42.3099L38.3618 13.1914H0V36.5884H54.7396V22.2144L49.1663 18.2942L54.7396 14.374V0H0ZM42.3099 26.3763H10.7255V23.4035H38.3618L42.3099 26.3763Z" fill="#1B1C1E"/>
<path d="M80.2074 13.7206C82.9141 13.7206 84.3228 12.2937 84.3228 10.3806C84.3228 9.00073 83.4523 7.90308 82.2176 7.68355C82.9774 7.43266 83.6897 6.72703 83.6897 5.3628C83.6897 3.55952 82.3126 2.58731 79.9225 2.58731H75.5856V13.7206H80.2074ZM77.8807 4.53172H79.9225C80.7931 4.53172 81.3787 4.97078 81.3787 5.81754C81.3787 6.67998 80.7931 7.10336 79.9225 7.10336H77.8807V4.53172ZM77.8807 8.82824H80.2391C81.3154 8.82824 82.0119 9.40843 82.0119 10.3336C82.0119 11.2117 81.3154 11.7762 80.2074 11.7762H77.8807V8.82824Z" fill="#1B1C1E"/>
<path d="M91.4981 9.89453C91.4981 11.3058 90.7225 11.9801 89.6462 11.9801C88.7756 11.9801 87.8734 11.541 87.8734 9.95726V5.51961H85.6258V10.3022C85.6258 12.8112 87.2245 13.8931 88.9498 13.8931C90.1685 13.8931 91.0391 13.3757 91.5456 12.5132L91.8622 13.7206H93.7616V5.51961H91.4981V9.89453Z" fill="#1B1C1E"/>
<path d="M97.3259 5.51961H95.4898V13.7206H97.7374V9.03209C97.7374 7.74627 98.608 7.22881 100.159 7.41698L100.175 5.50393C98.8613 5.34712 98.1173 5.81754 97.69 6.57022L97.3259 5.51961Z" fill="#1B1C1E"/>
<path d="M101.441 1.96008V13.7206H103.689V1.96008H101.441Z" fill="#1B1C1E"/>
<path d="M109.513 13.8774C112.109 13.8774 113.993 12.1055 113.993 9.61228C113.993 7.15041 112.109 5.34712 109.513 5.34712C106.918 5.34712 105.05 7.15041 105.05 9.61228C105.05 12.1055 106.918 13.8774 109.513 13.8774ZM109.513 11.8703C108.2 11.8703 107.218 10.9138 107.218 9.61228C107.218 8.2951 108.2 7.35426 109.513 7.35426C110.843 7.35426 111.808 8.2951 111.808 9.61228C111.808 10.9138 110.843 11.8703 109.513 11.8703Z" fill="#1B1C1E"/>
<path d="M120.165 5.34712C118.946 5.34712 118.107 5.84891 117.585 6.69567L117.236 5.51961H115.337V13.7206H117.616V9.36139C117.616 7.93444 118.376 7.26017 119.468 7.26017C120.339 7.26017 121.225 7.69923 121.225 9.28299V13.7206H123.504V8.93801C123.504 6.42909 121.906 5.34712 120.165 5.34712Z" fill="#1B1C1E"/>
<path d="M79.4635 31.3615C83.0565 31.3615 85.1775 28.9153 85.1775 25.7948C85.1775 22.6743 83.0565 20.2281 79.4635 20.2281H75.5856V31.3615H79.4635ZM77.8807 22.2823H79.4635C81.4737 22.2823 82.8824 23.4427 82.8824 25.7948C82.8824 28.1469 81.4737 29.3073 79.4635 29.3073H77.8807V22.2823Z" fill="#1B1C1E"/>
<path d="M90.5582 22.9879C88.0573 22.9879 86.2845 24.8226 86.2845 27.2845C86.2845 29.8247 88.1206 31.5183 90.6848 31.5183C92.6159 31.5183 94.2145 30.3422 94.6577 28.7898L92.695 28.586C92.3626 29.2289 91.682 29.6836 90.7006 29.6836C89.5452 29.6836 88.643 28.9623 88.5322 27.9587H94.816C94.9268 24.6658 93.0749 22.9879 90.5582 22.9879ZM90.5582 24.7756C91.682 24.7756 92.4892 25.4498 92.5367 26.4063H88.5163C88.5955 25.4498 89.4344 24.7756 90.5582 24.7756Z" fill="#1B1C1E"/>
<path d="M99.4939 31.5183C101.567 31.5183 103.071 30.5931 103.071 28.9309C103.071 25.7791 98.196 26.72 98.196 25.3714C98.196 24.9167 98.7183 24.6658 99.304 24.6658C100.111 24.6658 100.586 25.1048 100.665 25.6694L102.802 25.6066C102.77 24.1797 101.377 22.9879 99.3356 22.9879C97.5154 22.9879 96.0117 23.9288 96.0117 25.5282C96.0117 28.5546 100.808 27.6765 100.808 29.0407C100.808 29.5111 100.285 29.7777 99.5572 29.7777C98.6075 29.7777 97.9269 29.323 97.8636 28.633L95.6793 28.7114C95.7426 30.6872 97.5312 31.5183 99.4939 31.5183Z" fill="#1B1C1E"/>
<path d="M105.424 22.345C106.121 22.345 106.691 21.7805 106.691 21.0906C106.691 20.3849 106.121 19.8361 105.424 19.8361C104.728 19.8361 104.158 20.3849 104.158 21.0906C104.158 21.7805 104.728 22.345 105.424 22.345ZM104.301 23.1604V31.3615H106.548V23.1604H104.301Z" fill="#1B1C1E"/>
<path d="M114.779 24.4149V24.3679C114.162 23.4584 113.069 22.9879 112.025 22.9879C109.461 22.9879 107.909 24.8069 107.909 27.2374C107.909 29.5739 109.381 31.5183 111.898 31.5183C113.275 31.5183 114.367 30.9224 114.779 29.9502V30.5147C114.779 32.4434 113.813 33.2902 112.056 33.2902C110.648 33.2902 109.571 32.71 108.875 32.3337V34.2467C109.666 34.8426 111.233 35.2189 112.515 35.2189C115.475 35.2189 117.026 33.3686 117.026 30.5147V23.1604H115.19L114.779 24.4149ZM112.484 29.5268C111.138 29.5268 110.173 28.586 110.173 27.2531C110.173 25.9359 111.138 25.0108 112.484 25.0108C113.813 25.0108 114.763 25.9516 114.763 27.2531C114.763 28.5703 113.813 29.5268 112.484 29.5268Z" fill="#1B1C1E"/>
<path d="M123.565 22.9879C122.347 22.9879 121.508 23.4897 120.985 24.3365L120.637 23.1604H118.738V31.3615H121.017V27.0022C121.017 25.5753 121.777 24.901 122.869 24.901C123.739 24.901 124.626 25.3401 124.626 26.9238V31.3615H126.905V26.5788C126.905 24.0699 125.306 22.9879 123.565 22.9879Z" fill="#1B1C1E"/>
<path d="M65.2919 0H63.9728V36.5884H65.2919V0Z" fill="#1B1C1E"/>
</svg>
