<svg width="172" height="48" viewBox="0 0 172 48" fill="none" xmlns="http://www.w3.org/2000/svg">
<path d="M0 0V13.3971H54.9472L49.8199 17.3057H0V48H71.0895V29.1429L63.8515 24L71.0895 18.8571V0H0ZM54.9472 34.6029H13.9291V30.7029H49.8199L54.9472 34.6029Z" fill="#1B1C1E"/>
<path d="M104.164 18.8572C107.679 18.8572 109.509 16.9852 109.509 14.4754C109.509 12.6652 108.378 11.2252 106.775 10.9372C107.761 10.608 108.686 9.6823 108.686 7.89259C108.686 5.52688 106.898 4.25145 103.794 4.25145H98.1617V18.8572H104.164ZM101.142 6.8023H103.794C104.925 6.8023 105.685 7.3783 105.685 8.48916C105.685 9.62059 104.925 10.176 103.794 10.176H101.142V6.8023ZM101.142 12.4389H104.205C105.603 12.4389 106.507 13.2 106.507 14.4137C106.507 15.5657 105.603 16.3063 104.164 16.3063H101.142V12.4389Z" fill="#1B1C1E"/>
<path d="M118.827 13.8377C118.827 15.6892 117.82 16.5737 116.422 16.5737C115.291 16.5737 114.12 15.9977 114.12 13.92V8.0983H111.201V14.3726C111.201 17.664 113.277 19.0834 115.518 19.0834C117.1 19.0834 118.231 18.4046 118.889 17.2732L119.3 18.8572H121.767V8.0983H118.827V13.8377Z" fill="#1B1C1E"/>
<path d="M126.396 8.0983H124.011V18.8572H126.93V12.7063C126.93 11.0194 128.061 10.3406 130.075 10.5874L130.096 8.07773C128.39 7.87202 127.423 8.48916 126.868 9.47659L126.396 8.0983Z" fill="#1B1C1E"/>
<path d="M131.74 3.42859V18.8572H134.659V3.42859H131.74Z" fill="#1B1C1E"/>
<path d="M142.223 19.0629C145.594 19.0629 148.041 16.7383 148.041 13.4674C148.041 10.2377 145.594 7.87202 142.223 7.87202C138.852 7.87202 136.426 10.2377 136.426 13.4674C136.426 16.7383 138.852 19.0629 142.223 19.0629ZM142.223 16.4297C140.517 16.4297 139.243 15.1749 139.243 13.4674C139.243 11.7394 140.517 10.5052 142.223 10.5052C143.95 10.5052 145.204 11.7394 145.204 13.4674C145.204 15.1749 143.95 16.4297 142.223 16.4297Z" fill="#1B1C1E"/>
<path d="M156.056 7.87202C154.473 7.87202 153.384 8.5303 152.705 9.64116L152.253 8.0983H149.786V18.8572H152.746V13.1383C152.746 11.2663 153.733 10.3817 155.152 10.3817C156.282 10.3817 157.433 10.9577 157.433 13.0354V18.8572H160.393V12.5829C160.393 9.29145 158.317 7.87202 156.056 7.87202Z" fill="#1B1C1E"/>
<path d="M103.198 42C107.864 42 110.619 38.7909 110.619 34.6972C110.619 30.6034 107.864 27.3943 103.198 27.3943H98.1617V42H103.198ZM101.142 30.0892H103.198C105.809 30.0892 107.638 31.6114 107.638 34.6972C107.638 37.7829 105.809 39.3052 103.198 39.3052H101.142V30.0892Z" fill="#1B1C1E"/>
<path d="M117.606 31.0149C114.359 31.0149 112.056 33.4217 112.056 36.6515C112.056 39.984 114.441 42.2057 117.771 42.2057C120.279 42.2057 122.355 40.6629 122.93 38.6263L120.382 38.3589C119.95 39.2023 119.066 39.7989 117.791 39.7989C116.291 39.7989 115.119 38.8526 114.975 37.536H123.136C123.28 33.216 120.875 31.0149 117.606 31.0149ZM117.606 33.36C119.066 33.36 120.114 34.2446 120.176 35.4994H114.955C115.057 34.2446 116.147 33.36 117.606 33.36Z" fill="#1B1C1E"/>
<path d="M129.211 42.2057C131.904 42.2057 133.857 40.992 133.857 38.8115C133.857 34.6766 127.526 35.9109 127.526 34.1417C127.526 33.5452 128.204 33.216 128.964 33.216C130.013 33.216 130.629 33.792 130.732 34.5326L133.507 34.4503C133.466 32.5783 131.657 31.0149 129.006 31.0149C126.642 31.0149 124.689 32.2492 124.689 34.3475C124.689 38.3177 130.917 37.1657 130.917 38.9555C130.917 39.5726 130.239 39.9223 129.293 39.9223C128.06 39.9223 127.176 39.3257 127.094 38.4206L124.257 38.5234C124.339 41.1154 126.662 42.2057 129.211 42.2057Z" fill="#1B1C1E"/>
<path d="M136.913 30.1714C137.817 30.1714 138.557 29.4309 138.557 28.5257C138.557 27.6 137.817 26.88 136.913 26.88C136.008 26.88 135.268 27.6 135.268 28.5257C135.268 29.4309 136.008 30.1714 136.913 30.1714ZM135.453 31.2412V42H138.372V31.2412H135.453Z" fill="#1B1C1E"/>
<path d="M149.061 32.8869V32.8252C148.26 31.632 146.841 31.0149 145.485 31.0149C142.155 31.0149 140.14 33.4012 140.14 36.5897C140.14 39.6549 142.052 42.2057 145.32 42.2057C147.109 42.2057 148.527 41.424 149.061 40.1486V40.8892C149.061 43.4195 147.808 44.5303 145.526 44.5303C143.696 44.5303 142.299 43.7692 141.394 43.2755V45.7852C142.422 46.5669 144.457 47.0606 146.122 47.0606C149.966 47.0606 151.98 44.6332 151.98 40.8892V31.2412H149.596L149.061 32.8869ZM146.081 39.5932C144.334 39.5932 143.08 38.3589 143.08 36.6103C143.08 34.8823 144.334 33.6686 146.081 33.6686C147.808 33.6686 149.041 34.9029 149.041 36.6103C149.041 38.3383 147.808 39.5932 146.081 39.5932Z" fill="#1B1C1E"/>
<path d="M160.472 31.0149C158.889 31.0149 157.8 31.6732 157.122 32.784L156.669 31.2412H154.203V42H157.163V36.2812C157.163 34.4092 158.149 33.5246 159.568 33.5246C160.698 33.5246 161.85 34.1006 161.85 36.1783V42H164.81V35.7257C164.81 32.4343 162.733 31.0149 160.472 31.0149Z" fill="#1B1C1E"/>
<path d="M86.0032 0H84.2917V48H86.0032V0Z" fill="#1B1C1E"/>
</svg>
