<svg width="390" height="525" viewBox="0 0 390 525" fill="none" xmlns="http://www.w3.org/2000/svg">
<g filter="url(#filter0_d_129_486)">
<path d="M78.0556 183.038L69.044 45.7428L60.0323 183.038H36.8101L20 20H37.33L47.2081 160.942L58.8192 20H79.6153L91.2264 160.942L101.104 20H117.395L100.585 183.038H78.0556Z" fill="#F8F8F8"/>
<path d="M143.057 92.2944H160.56V20H177.197V183.038H160.56V110.314H143.057V183.038H126.42V20H143.057V92.2944Z" fill="#F8F8F8"/>
<path d="M206.203 140.991L202.91 183.038H186.273L202.044 20H225.959L242.076 183.038H224.746L221.453 140.991H206.203ZM213.828 41.2378L207.416 123.4H220.24L213.828 41.2378Z" fill="#F8F8F8"/>
<path d="M270.677 37.1619V183.038H254.041V37.1619H238.27V20H286.448V37.1619H270.677Z" fill="#F8F8F8"/>
<path d="M300.294 67.6242H294.575L302.547 43.5976H294.748V20H312.079V41.4523L300.294 67.6242Z" fill="#F8F8F8"/>
<path d="M352.843 41.4523L349.377 37.1619H343.312L339.846 41.4523V87.3603L343.312 91.6508H359.602L370 104.522V170.166L359.602 183.038H333.26L322.862 170.166V136.057H339.499V161.585L342.965 165.876H349.897L353.363 161.585V113.532L349.897 109.242H333.607L323.209 96.3703V32.8714L333.607 20H359.082L369.48 32.8714V67.1951H352.843V41.4523Z" fill="#F8F8F8"/>
<path d="M181.003 425H153.101L142.703 412.129V261.962H159.34V403.119L162.806 407.409H171.298L174.764 403.119V261.962H191.401V412.129L181.003 425Z" fill="#F8F8F8"/>
<path d="M204.351 261.962H241.957L252.355 274.834V346.914L241.957 359.785H220.988V425H204.351V261.962ZM235.718 338.333V283.415L232.252 279.124H220.988V342.623H232.252L235.718 338.333Z" fill="#F8F8F8"/>
</g>
<defs>
<filter id="filter0_d_129_486" x="-40" y="0" width="470" height="525" filterUnits="userSpaceOnUse" color-interpolation-filters="sRGB">
<feFlood flood-opacity="0" result="BackgroundImageFix"/>
<feColorMatrix in="SourceAlpha" type="matrix" values="0 0 0 0 0 0 0 0 0 0 0 0 0 0 0 0 0 0 127 0" result="hardAlpha"/>
<feOffset dy="40"/>
<feGaussianBlur stdDeviation="30"/>
<feComposite in2="hardAlpha" operator="out"/>
<feColorMatrix type="matrix" values="0 0 0 0 0.604167 0 0 0 0 0.604167 0 0 0 0 0.604167 0 0 0 0.1 0"/>
<feBlend mode="normal" in2="BackgroundImageFix" result="effect1_dropShadow_129_486"/>
<feBlend mode="normal" in="SourceGraphic" in2="effect1_dropShadow_129_486" result="shape"/>
</filter>
</defs>
</svg>
