<svg width="1243" height="572" viewBox="0 0 1243 572" fill="none" xmlns="http://www.w3.org/2000/svg">
<g filter="url(#filter0_d_182_376)">
<path d="M193.937 472L173.147 91.3684L152.357 472H98.7819L60 20H99.9813L122.771 410.742L149.558 20H197.536L224.323 410.742L247.113 20H284.695L245.913 472H193.937Z" fill="#FEFEFE" fill-opacity="0.5" shape-rendering="crispEdges"/>
<path d="M339.9 220.426H380.282V20H418.664V472H380.282V270.384H339.9V472H301.518V20H339.9V220.426Z" fill="#FEFEFE" fill-opacity="0.5" shape-rendering="crispEdges"/>
<path d="M481.584 355.432L473.988 472H435.606L471.989 20H527.163L564.345 472H524.364L516.768 355.432H481.584ZM499.176 78.879L484.383 306.663H513.969L499.176 78.879Z" fill="#FEFEFE" fill-opacity="0.5" shape-rendering="crispEdges"/>
<path d="M626.332 67.579V472H587.95V67.579H551.567V20H662.715V67.579H626.332Z" fill="#FEFEFE" fill-opacity="0.5" shape-rendering="crispEdges"/>
<path d="M690.661 152.032H677.468L695.859 85.4211H677.867V20H717.849V79.4737L690.661 152.032Z" fill="#FEFEFE" fill-opacity="0.5" shape-rendering="crispEdges"/>
<path d="M807.897 79.4737L799.901 67.579H785.908L777.911 79.4737V206.747L785.908 218.642H823.49L847.479 254.326V436.316L823.49 472H762.718L738.73 436.316V341.753H777.112V412.526L785.108 424.421H801.1L809.097 412.526V279.305L801.1 267.411H763.518L739.529 231.726V55.6842L763.518 20H822.29L846.279 55.6842V150.842H807.897V79.4737Z" fill="#FEFEFE" fill-opacity="0.5" shape-rendering="crispEdges"/>
<path d="M1022.38 472H958.015L934.026 436.316V20H972.408V411.337L980.404 423.232H999.995L1007.99 411.337V20H1046.37V436.316L1022.38 472Z" fill="#FEFEFE" fill-opacity="0.5" shape-rendering="crispEdges"/>
<path d="M1072.25 20H1159.01L1183 55.6842V255.516L1159.01 291.2H1110.63V472H1072.25V20ZM1144.62 231.726V79.4737L1136.62 67.579H1110.63V243.621H1136.62L1144.62 231.726Z" fill="#FEFEFE" fill-opacity="0.5" shape-rendering="crispEdges"/>
</g>
<defs>
<filter id="filter0_d_182_376" x="0" y="0" width="1243" height="572" filterUnits="userSpaceOnUse" color-interpolation-filters="sRGB">
<feFlood flood-opacity="0" result="BackgroundImageFix"/>
<feColorMatrix in="SourceAlpha" type="matrix" values="0 0 0 0 0 0 0 0 0 0 0 0 0 0 0 0 0 0 127 0" result="hardAlpha"/>
<feOffset dy="40"/>
<feGaussianBlur stdDeviation="30"/>
<feComposite in2="hardAlpha" operator="out"/>
<feColorMatrix type="matrix" values="0 0 0 0 0.604167 0 0 0 0 0.604167 0 0 0 0 0.604167 0 0 0 0.1 0"/>
<feBlend mode="normal" in2="BackgroundImageFix" result="effect1_dropShadow_182_376"/>
<feBlend mode="normal" in="SourceGraphic" in2="effect1_dropShadow_182_376" result="shape"/>
</filter>
</defs>
</svg>
