<svg width="470" height="525" viewBox="0 0 470 525" fill="none" xmlns="http://www.w3.org/2000/svg">
<g filter="url(#filter0_d_337_361)">
<path d="M118.056 183.038L109.044 45.7428L100.032 183.038H76.8101L60 20H77.33L87.2081 160.942L98.8192 20H119.615L131.226 160.942L141.104 20H157.395L140.585 183.038H118.056Z" fill="#F8F8F8"/>
<path d="M183.057 92.2944H200.56V20H217.197V183.038H200.56V110.314H183.057V183.038H166.42V20H183.057V92.2944Z" fill="#F8F8F8"/>
<path d="M246.203 140.991L242.91 183.038H226.273L242.044 20H265.959L282.076 183.038H264.746L261.453 140.991H246.203ZM253.828 41.2378L247.416 123.4H260.24L253.828 41.2378Z" fill="#F8F8F8"/>
<path d="M310.677 37.1619V183.038H294.041V37.1619H278.27V20H326.448V37.1619H310.677Z" fill="#F8F8F8"/>
<path d="M340.294 67.6242H334.575L342.547 43.5976H334.748V20H352.079V41.4523L340.294 67.6242Z" fill="#F8F8F8"/>
<path d="M392.843 41.4523L389.377 37.1619H383.312L379.846 41.4523V87.3603L383.312 91.6508H399.602L410 104.522V170.166L399.602 183.038H373.26L362.862 170.166V136.057H379.499V161.585L382.965 165.876H389.897L393.363 161.585V113.532L389.897 109.242H373.607L363.209 96.3703V32.8714L373.607 20H399.082L409.48 32.8714V67.1951H392.843V41.4523Z" fill="#F8F8F8"/>
<path d="M221.003 425H193.101L182.703 412.129V261.962H199.34V403.119L202.806 407.409H211.298L214.764 403.119V261.962H231.401V412.129L221.003 425Z" fill="#F8F8F8"/>
<path d="M244.351 261.962H281.957L292.355 274.834V346.914L281.957 359.785H260.988V425H244.351V261.962ZM275.718 338.333V283.415L272.252 279.124H260.988V342.623H272.252L275.718 338.333Z" fill="#F8F8F8"/>
</g>
<defs>
<filter id="filter0_d_337_361" x="0" y="0" width="470" height="525" filterUnits="userSpaceOnUse" color-interpolation-filters="sRGB">
<feFlood flood-opacity="0" result="BackgroundImageFix"/>
<feColorMatrix in="SourceAlpha" type="matrix" values="0 0 0 0 0 0 0 0 0 0 0 0 0 0 0 0 0 0 127 0" result="hardAlpha"/>
<feOffset dy="40"/>
<feGaussianBlur stdDeviation="30"/>
<feComposite in2="hardAlpha" operator="out"/>
<feColorMatrix type="matrix" values="0 0 0 0 0.604167 0 0 0 0 0.604167 0 0 0 0 0.604167 0 0 0 0.1 0"/>
<feBlend mode="normal" in2="BackgroundImageFix" result="effect1_dropShadow_337_361"/>
<feBlend mode="normal" in="SourceGraphic" in2="effect1_dropShadow_337_361" result="shape"/>
</filter>
</defs>
</svg>
